<svg width="24" height="24" viewBox="0 0 24 24" fill="none" xmlns="http://www.w3.org/2000/svg">
<g clip-path="url(#clip0_80_2504)">
<path fill-rule="evenodd" clip-rule="evenodd" d="M12 0C18.6274 0 24 5.37259 24 12C24 18.6274 18.6274 24 12 24C5.37259 24 0 18.6274 0 12C0 5.37259 5.37259 0 12 0Z" fill="#313A34"/>
<path d="M13.5622 23.8994V14.6286H16.1774L16.5241 11.3656H13.5622L13.5666 9.73241C13.5666 8.88136 13.6475 8.42558 14.8707 8.42558H16.5058V5.16211H13.89C10.7479 5.16211 9.6422 6.74489 9.6422 9.40703V11.3659H7.68356V14.6291H9.6422V23.768C10.4052 23.9199 11.1941 24.0002 12.0018 24.0002C12.5236 24.0002 13.0448 23.9665 13.5622 23.8994Z" fill="white"/>
</g>
<defs>
<clipPath id="clip0_80_2504">
<rect width="24" height="24" fill="white"/>
</clipPath>
</defs>
</svg>
